<?xml version="1.0" standalone="no"?>
<!DOCTYPE svg PUBLIC "-//W3C//DTD SVG 20010904//EN"
 "http://www.w3.org/TR/2001/REC-SVG-20010904/DTD/svg10.dtd">
<svg version="1.0" xmlns="http://www.w3.org/2000/svg"
 width="16.000000pt" height="16.000000pt" viewBox="0 0 16.000000 16.000000"
 preserveAspectRatio="xMidYMid meet">
<metadata>
Created by potrace 1.11, written by Peter Selinger 2001-2013
</metadata>
<g transform="translate(0.000000,16.000000) scale(0.001490,-0.001490)"
fill="#000000" stroke="none">
<path d="M5625 10679 c-603 -33 -1347 -185 -1980 -406 -675 -235 -1253 -557
-1765 -982 -149 -124 -470 -445 -591 -591 -529 -638 -883 -1363 -1094 -2235
-170 -703 -217 -1298 -150 -1894 110 -967 523 -1885 1209 -2681 119 -139 413
-431 556 -554 1080 -926 2407 -1391 3590 -1260 299 34 1073 204 1540 339 1001
290 1744 662 2320 1161 136 118 370 360 475 492 545 687 834 1503 905 2557 14
208 14 745 0 955 -14 214 -45 512 -70 686 -252 1732 -1042 3064 -2251 3795
-762 461 -1685 672 -2694 618z m620 -209 c810 -51 1507 -277 2125 -690 747
-499 1326 -1276 1668 -2236 202 -567 315 -1108 379 -1809 25 -274 25 -1041 0
-1275 -56 -532 -145 -917 -304 -1320 -331 -837 -904 -1465 -1771 -1942 -586
-323 -1300 -569 -2267 -782 -584 -128 -748 -151 -1090 -150 -342 1 -607 36
-960 126 -721 184 -1394 535 -2025 1058 -161 133 -518 490 -650 650 -611 738
-977 1557 -1090 2435 -72 558 -37 1108 111 1770 163 722 438 1370 815 1915
541 783 1298 1371 2269 1760 375 150 814 278 1271 370 538 108 1056 149 1519
120z"/>
<path d="M5320 9143 c-285 -14 -511 -45 -960 -129 -764 -143 -1116 -263 -1472
-500 -672 -449 -1070 -1236 -1233 -2437 -85 -627 -32 -1241 156 -1834 77 -244
233 -594 366 -823 518 -889 1348 -1568 2210 -1804 276 -76 479 -101 751 -93
241 6 477 48 953 167 770 193 1356 460 1794 815 409 332 714 773 890 1285 94
275 141 495 187 885 18 150 18 882 0 1060 -100 998 -378 1735 -878 2325 -436
515 -1047 867 -1754 1010 -316 63 -684 90 -1010 73z"/>
</g>
</svg>
